<svg width="10" height="18" viewBox="0 0 10 18" fill="none" xmlns="http://www.w3.org/2000/svg">
<path d="M2.54547 9.04888L9.40428 2.31088C9.52335 2.19054 9.52296 1.9978 9.4031 1.87794L8.92647 1.40131C8.80622 1.28106 8.6126 1.28106 8.49236 1.40132L8.48962 1.40402L0.585648 9.18722C0.470467 9.30762 0.471011 9.50148 0.590002 9.62158C0.590346 9.62193 0.590691 9.62227 0.591037 9.62262L8.49633 17.4071L8.49634 17.4071L8.49906 17.4098C8.61931 17.5301 8.81293 17.5301 8.93318 17.4098L9.40981 16.9332C9.52965 16.8133 9.53006 16.6207 9.41105 16.5003L2.54565 9.76241L2.18222 9.40574L2.54547 9.04888Z" fill="#B2B4B6" stroke="#B2B4B6"/>
</svg>
